<svg xmlns="http://www.w3.org/2000/svg" viewBox="0 17.299999237060547 224.10000610351562 35.54999923706055" data-asc="1.05" width="224.10000610351562" height="35.54999923706055"><defs/><g fill="#2dd4bf"><g transform="translate(0, 0)"><path d="M11.30 52.85Q8.10 52.85 5.55 51.83Q3 50.80 1.50 48.83Q0 46.85 0 44.15Q0 43.80 0.10 42.90L5.75 42.90Q5.55 45.20 7.10 46.73Q8.65 48.25 11.55 48.25Q14.65 48.25 16.40 46.98Q18.15 45.70 18.15 43.30Q18.15 41.85 17.28 40.83Q16.40 39.80 15.08 39.10Q13.75 38.40 11.40 37.45Q8.30 36.15 6.45 35.10Q4.60 34.05 3.28 32.20Q1.95 30.35 1.95 27.55Q1.95 24.45 3.55 22.13Q5.15 19.80 7.98 18.55Q10.80 17.30 14.35 17.30Q17.90 17.30 20.48 18.48Q23.05 19.65 24.38 21.77Q25.70 23.90 25.55 26.75L19.55 26.75Q19.75 24.70 18.30 23.32Q16.85 21.95 14.10 21.95Q11.20 21.95 9.48 23.27Q7.75 24.60 7.75 26.85Q7.75 28.25 8.63 29.27Q9.50 30.30 10.85 31.02Q12.20 31.75 14.50 32.75Q17.60 34.15 19.48 35.25Q21.35 36.35 22.70 38.23Q24.05 40.10 24.05 42.85Q24.05 45.75 22.45 48.02Q20.85 50.30 17.95 51.58Q15.05 52.85 11.30 52.85ZM57.25 28.10Q56.80 30.75 55.13 33.10Q53.45 35.45 50.45 36.92Q47.45 38.40 43.15 38.40L36.85 38.40L34.35 52.50L28.65 52.50L34.80 17.75L46.80 17.75Q52.05 17.75 54.75 20.07Q57.45 22.40 57.45 26.15Q57.45 26.80 57.25 28.10M43.95 33.95Q47.20 33.95 49.08 32.40Q50.95 30.85 51.40 28.10Q51.55 27.35 51.55 26.65Q51.55 24.55 50.18 23.38Q48.80 22.20 46 22.20L39.70 22.20L37.65 33.95L43.95 33.95ZM72.70 35.15L85 52.50L77.55 52.50L66.85 36.95L64.10 52.50L58.40 52.50L64.55 17.75L70.25 17.75L67.45 33.60L83.75 17.75L90.90 17.75L72.70 35.15ZM118.65 28.10Q118.20 30.75 116.53 33.10Q114.85 35.45 111.85 36.92Q108.85 38.40 104.55 38.40L98.25 38.40L95.75 52.50L90.05 52.50L96.20 17.75L108.20 17.75Q113.45 17.75 116.15 20.07Q118.85 22.40 118.85 26.15Q118.85 26.80 118.65 28.10M105.35 33.95Q108.60 33.95 110.48 32.40Q112.35 30.85 112.80 28.10Q112.95 27.35 112.95 26.65Q112.95 24.55 111.58 23.38Q110.20 22.20 107.40 22.20L101.10 22.20L99.05 33.95L105.35 33.95ZM130.85 22.15L129 32.70L141 32.70L140.25 37.10L128.25 37.10L126.30 48.05L139.80 48.05L139 52.50L119.80 52.50L125.95 17.70L145.15 17.70L144.35 22.15L130.85 22.15ZM163.50 17.75Q168.35 17.75 171.90 19.40Q175.45 21.05 177.33 24.15Q179.20 27.25 179.20 31.50Q179.20 33.45 178.85 35.25Q177.90 40.55 174.95 44.45Q172.00 48.35 167.45 50.42Q162.90 52.50 157.35 52.50L146.00 52.50L152.15 17.75L163.50 17.75M158.15 48.15Q164.20 48.15 168.08 44.70Q171.95 41.25 173.00 35.25Q173.30 33.50 173.30 32Q173.30 27.40 170.60 24.88Q167.90 22.35 162.70 22.35L157.05 22.35L152.50 48.15L158.15 48.15ZM193.30 17.75L187.15 52.50L181.45 52.50L187.60 17.75L193.30 17.75ZM216.85 45.40L202.30 45.40L198.55 52.50L192.60 52.50L211.20 17.70L217.80 17.70L224.10 52.50L218.10 52.50L216.85 45.40M216.10 40.95L213.25 24.60L204.65 40.95L216.10 40.95Z"/></g></g></svg>